<?xml version="1.0" encoding="UTF-8"?>
<svg version="1.1" xmlns="http://www.w3.org/2000/svg" width="278" height="278">
<path d="M0 0 C0.65871094 0.18191895 1.31742188 0.36383789 1.99609375 0.55126953 C21.54225884 6.05231549 38.54714167 15.96087316 54 29 C55.21623047 30.01320313 55.21623047 30.01320313 56.45703125 31.046875 C76.74385475 48.55424394 90.89228594 72.26365359 98 98 C98.29414795 99.01513672 98.29414795 99.01513672 98.59423828 100.05078125 C104.86724061 122.49612729 104.47167711 149.66553503 98 172 C97.81808105 172.65871094 97.63616211 173.31742188 97.44873047 173.99609375 C91.94768451 193.54225884 82.03912684 210.54714167 69 226 C68.32453125 226.81082031 67.6490625 227.62164062 66.953125 228.45703125 C49.44575606 248.74385475 25.73634641 262.89228594 0 270 C-1.01513672 270.29414795 -1.01513672 270.29414795 -2.05078125 270.59423828 C-24.49612729 276.86724061 -51.66553503 276.47167711 -74 270 C-74.65871094 269.81808105 -75.31742187 269.63616211 -75.99609375 269.44873047 C-95.54225884 263.94768451 -112.54714167 254.03912684 -128 241 C-128.81082031 240.32453125 -129.62164062 239.6490625 -130.45703125 238.953125 C-150.74385475 221.44575606 -164.89228594 197.73634641 -172 172 C-172.29414795 170.98486328 -172.29414795 170.98486328 -172.59423828 169.94921875 C-178.86724061 147.50387271 -178.47167711 120.33446497 -172 98 C-171.81808105 97.34128906 -171.63616211 96.68257813 -171.44873047 96.00390625 C-165.94768451 76.45774116 -156.03912684 59.45285833 -143 44 C-141.98679687 42.78376953 -141.98679687 42.78376953 -140.953125 41.54296875 C-123.44575606 21.25614525 -99.73634641 7.10771406 -74 0 C-73.32324219 -0.19609863 -72.64648438 -0.39219727 -71.94921875 -0.59423828 C-49.50387271 -6.86724061 -22.33446497 -6.47167711 0 0 Z " fill="#01162E" transform="translate(176,4)"/>
<path d="M0 0 C3.36740866 1.62888431 6.4401225 3.63496734 9.5625 5.6875 C20.66543574 12.68240061 31.70230113 17.98603964 45.0703125 18.2109375 C46.78541016 18.25347656 46.78541016 18.25347656 48.53515625 18.296875 C50.93603753 18.34912486 53.33710649 18.3933454 55.73828125 18.4296875 C56.87910156 18.460625 58.01992187 18.4915625 59.1953125 18.5234375 C60.23703613 18.54325684 61.27875977 18.56307617 62.35205078 18.58349609 C65.42278103 19.0665005 66.11286531 19.60549931 68 22 C68.38311005 23.87006187 68.38311005 23.87006187 68.39440918 26.00961304 C68.40575897 26.82268417 68.41710876 27.63575531 68.42880249 28.47346497 C68.42587189 29.36184555 68.42294128 30.25022614 68.41992188 31.16552734 C68.42839142 32.1040303 68.43686096 33.04253326 68.44558716 34.00947571 C68.46902633 37.11843338 68.46997758 40.22689807 68.46875 43.3359375 C68.475848 45.49443766 68.48354646 47.65293592 68.49182129 49.81143188 C68.50528245 54.33918499 68.50682777 58.8667637 68.50097656 63.39453125 C68.49508263 69.19771757 68.52565231 75.00006666 68.56609344 80.80309105 C68.5919415 85.26236482 68.59485039 89.72143633 68.59120178 94.18077469 C68.59289611 96.32021817 68.60256853 98.45967069 68.62034607 100.59904099 C68.64247538 103.59182484 68.6328637 106.58290568 68.61523438 109.57568359 C68.62849762 110.46001572 68.64176086 111.34434784 68.65542603 112.25547791 C68.59474427 116.68778146 68.46266774 118.42828813 65.58343506 121.9861145 C64.73090149 122.65069672 63.87836792 123.31527893 63 124 C62.35643555 124.54333984 61.71287109 125.08667969 61.04980469 125.64648438 C60.43008789 126.12408203 59.81037109 126.60167969 59.171875 127.09375 C58.46313232 127.64256836 57.75438965 128.19138672 57.02416992 128.75683594 C56.27369385 129.33208008 55.52321777 129.90732422 54.75 130.5 C53.96149658 131.10875977 53.17299316 131.71751953 52.3605957 132.34472656 C49.91039188 134.2341933 47.45594919 136.11800884 45 138 C43.86667236 138.86915039 43.86667236 138.86915039 42.71044922 139.75585938 C39.12798924 142.50175373 35.54207486 145.24306323 31.953125 147.98046875 C28.96313494 150.26181102 25.98092817 152.55282782 23.00561523 154.85327148 C21.45218377 156.05117683 19.89213087 157.24047949 18.33203125 158.4296875 C15.81642748 160.35297884 13.34902314 162.32931966 10.88671875 164.3203125 C9.46642469 165.44306118 8.04585533 166.5654617 6.625 167.6875 C5.97072021 168.22963135 5.31644043 168.7717627 4.64233398 169.33032227 C1.31725287 171.92318212 -0.30064809 172.97812168 -4.62109375 173.11328125 C-8.51435153 171.83053158 -10.65248135 170.24294572 -13.6875 167.5 C-14.73215091 166.58079952 -15.7790875 165.6641911 -16.828125 164.75 C-17.61799805 164.05583984 -17.61799805 164.05583984 -18.42382812 163.34765625 C-20.84184065 161.28021059 -23.38182707 159.39309106 -25.9375 157.5 C-66.7615625 127.2384375 -66.7615625 127.2384375 -75 119 C-75.20422981 115.94252967 -75.28312462 112.97526762 -75.2746582 109.91625977 C-75.27976913 108.97469025 -75.28488007 108.03312073 -75.29014587 107.0630188 C-75.30408797 103.93908395 -75.30308163 100.81536858 -75.30078125 97.69140625 C-75.30466567 95.52668678 -75.30899981 93.36196807 -75.31376648 91.19725037 C-75.32123865 86.65515678 -75.32093021 82.1131409 -75.31567383 77.57104492 C-75.30987819 71.74205934 -75.3268078 65.91339139 -75.3500185 60.08445835 C-75.36472979 55.612423 -75.36563109 51.1404646 -75.36250877 46.66840935 C-75.36302331 44.51895455 -75.36828567 42.36949559 -75.37832069 40.22006416 C-75.39061717 37.21754269 -75.3839342 34.21564577 -75.37231445 31.21313477 C-75.37995819 30.32004105 -75.38760193 29.42694733 -75.39547729 28.50679016 C-75.38846298 27.68938354 -75.38144867 26.87197693 -75.3742218 26.02980042 C-75.37438954 25.31985208 -75.37455729 24.60990374 -75.37473011 23.87844181 C-74.88581668 21.42762348 -73.93686588 20.53118959 -72 19 C-69.87792969 18.61523438 -69.87792969 18.61523438 -67.421875 18.59375 C-66.51550293 18.5740918 -65.60913086 18.55443359 -64.67529297 18.53417969 C-63.22727295 18.51726074 -63.22727295 18.51726074 -61.75 18.5 C-43.20664467 17.95061197 -28.03999835 13.96247529 -12.69360352 3.30249023 C-8.3321148 0.38840065 -5.38573998 -0.96547823 0 0 Z " fill="#032136" transform="translate(143,45)"/>
<path d="M0 0 C3.36740866 1.62888431 6.4401225 3.63496734 9.5625 5.6875 C20.66543574 12.68240061 31.70230113 17.98603964 45.0703125 18.2109375 C46.78541016 18.25347656 46.78541016 18.25347656 48.53515625 18.296875 C50.93603753 18.34912486 53.33710649 18.3933454 55.73828125 18.4296875 C56.87910156 18.460625 58.01992187 18.4915625 59.1953125 18.5234375 C60.23703613 18.54325684 61.27875977 18.56307617 62.35205078 18.58349609 C65.42278103 19.0665005 66.11286531 19.60549931 68 22 C68.38311005 23.87006187 68.38311005 23.87006187 68.39440918 26.00961304 C68.40575897 26.82268417 68.41710876 27.63575531 68.42880249 28.47346497 C68.42587189 29.36184555 68.42294128 30.25022614 68.41992188 31.16552734 C68.42839142 32.1040303 68.43686096 33.04253326 68.44558716 34.00947571 C68.46902633 37.11843338 68.46997758 40.22689807 68.46875 43.3359375 C68.475848 45.49443766 68.48354646 47.65293592 68.49182129 49.81143188 C68.50528245 54.33918499 68.50682777 58.8667637 68.50097656 63.39453125 C68.49508263 69.19771757 68.52565231 75.00006666 68.56609344 80.80309105 C68.5919415 85.26236482 68.59485039 89.72143633 68.59120178 94.18077469 C68.59289611 96.32021817 68.60256853 98.45967069 68.62034607 100.59904099 C68.64247538 103.59182484 68.6328637 106.58290568 68.61523438 109.57568359 C68.62849762 110.46001572 68.64176086 111.34434784 68.65542603 112.25547791 C68.59474427 116.68778146 68.46266774 118.42828813 65.58343506 121.9861145 C64.73090149 122.65069672 63.87836792 123.31527893 63 124 C62.35643555 124.54333984 61.71287109 125.08667969 61.04980469 125.64648438 C60.43008789 126.12408203 59.81037109 126.60167969 59.171875 127.09375 C58.46313232 127.64256836 57.75438965 128.19138672 57.02416992 128.75683594 C56.27369385 129.33208008 55.52321777 129.90732422 54.75 130.5 C53.96149658 131.10875977 53.17299316 131.71751953 52.3605957 132.34472656 C49.91039188 134.2341933 47.45594919 136.11800884 45 138 C43.86667236 138.86915039 43.86667236 138.86915039 42.71044922 139.75585938 C39.12798924 142.50175373 35.54207486 145.24306323 31.953125 147.98046875 C28.96313494 150.26181102 25.98092817 152.55282782 23.00561523 154.85327148 C21.45218377 156.05117683 19.89213087 157.24047949 18.33203125 158.4296875 C15.81642748 160.35297884 13.34902314 162.32931966 10.88671875 164.3203125 C9.46642469 165.44306118 8.04585533 166.5654617 6.625 167.6875 C5.97072021 168.22963135 5.31644043 168.7717627 4.64233398 169.33032227 C1.31725287 171.92318212 -0.30064809 172.97812168 -4.62109375 173.11328125 C-8.51435153 171.83053158 -10.65248135 170.24294572 -13.6875 167.5 C-14.73215091 166.58079952 -15.7790875 165.6641911 -16.828125 164.75 C-17.61799805 164.05583984 -17.61799805 164.05583984 -18.42382812 163.34765625 C-20.84184065 161.28021059 -23.38182707 159.39309106 -25.9375 157.5 C-66.7615625 127.2384375 -66.7615625 127.2384375 -75 119 C-75.20422981 115.94252967 -75.28312462 112.97526762 -75.2746582 109.91625977 C-75.27976913 108.97469025 -75.28488007 108.03312073 -75.29014587 107.0630188 C-75.30408797 103.93908395 -75.30308163 100.81536858 -75.30078125 97.69140625 C-75.30466567 95.52668678 -75.30899981 93.36196807 -75.31376648 91.19725037 C-75.32123865 86.65515678 -75.32093021 82.1131409 -75.31567383 77.57104492 C-75.30987819 71.74205934 -75.3268078 65.91339139 -75.3500185 60.08445835 C-75.36472979 55.612423 -75.36563109 51.1404646 -75.36250877 46.66840935 C-75.36302331 44.51895455 -75.36828567 42.36949559 -75.37832069 40.22006416 C-75.39061717 37.21754269 -75.3839342 34.21564577 -75.37231445 31.21313477 C-75.37995819 30.32004105 -75.38760193 29.42694733 -75.39547729 28.50679016 C-75.38846298 27.68938354 -75.38144867 26.87197693 -75.3742218 26.02980042 C-75.37438954 25.31985208 -75.37455729 24.60990374 -75.37473011 23.87844181 C-74.88581668 21.42762348 -73.93686588 20.53118959 -72 19 C-69.87792969 18.61523438 -69.87792969 18.61523438 -67.421875 18.59375 C-66.51550293 18.5740918 -65.60913086 18.55443359 -64.67529297 18.53417969 C-63.22727295 18.51726074 -63.22727295 18.51726074 -61.75 18.5 C-43.20664467 17.95061197 -28.03999835 13.96247529 -12.69360352 3.30249023 C-8.3321148 0.38840065 -5.38573998 -0.96547823 0 0 Z M-9.2578125 12.16796875 C-10.0430127 12.64758057 -10.82821289 13.12719238 -11.63720703 13.62133789 C-12.45817871 14.13817139 -13.27915039 14.65500488 -14.125 15.1875 C-20.86954821 19.26203753 -27.31530036 22.99280233 -35 25 C-35.60568817 25.1591539 -36.21137634 25.3183078 -36.8354187 25.48228455 C-42.91903064 26.96671644 -48.81673794 27.41637329 -55.0625 27.625 C-56.02349609 27.66367188 -56.98449219 27.70234375 -57.97460938 27.7421875 C-60.31622814 27.83538626 -62.65786037 27.92119185 -65 28 C-65.18555629 39.22221078 -65.32760598 50.44405528 -65.41449738 61.66748905 C-65.45620682 66.8793827 -65.51275654 72.09022508 -65.60351562 77.30151367 C-65.69059461 82.33312201 -65.73830606 87.36372088 -65.75901794 92.3960247 C-65.77377273 94.31345955 -65.80258735 96.23084059 -65.84584045 98.14784431 C-66.46362165 108.3436568 -66.46362165 108.3436568 -63.28085327 117.68211365 C-61.26080076 119.47698259 -59.37487296 120.73120552 -57 122 C-55.89416152 122.84437847 -54.80187307 123.70691628 -53.7265625 124.58984375 C-52.70304687 125.36457031 -51.67953125 126.13929688 -50.625 126.9375 C-46.82926191 129.82317428 -43.0689928 132.73410028 -39.375 135.75 C-33.72392228 140.30791843 -27.84989256 144.56161853 -21.98144531 148.83325195 C-16.78352258 152.63050282 -11.79857038 156.53523289 -7.0078125 160.83984375 C-5.03160956 162.21601703 -5.03160956 162.21601703 -2.54296875 161.9296875 C0.52088438 160.80956915 2.35513601 159.33527483 4.8125 157.1875 C9.36590775 153.32567166 14.01636641 149.68045711 18.8125 146.125 C24.47961077 141.90969439 30.07742298 137.62364918 35.61132812 133.23510742 C38.9196332 130.61729288 42.2536187 128.03875112 45.6171875 125.4921875 C46.39715088 124.90107178 47.17711426 124.30995605 47.98071289 123.70092773 C49.5112375 122.54345949 51.04420533 121.38921343 52.57983398 120.23852539 C53.27149658 119.71508545 53.96315918 119.19164551 54.67578125 118.65234375 C55.29364502 118.18820068 55.91150879 117.72405762 56.5480957 117.24584961 C58.14022901 116.04250818 58.14022901 116.04250818 59 114 C59.09316671 111.28420414 59.125777 108.59426102 59.11352539 105.87841797 C59.11367142 105.03931885 59.11381744 104.20021973 59.1139679 103.33569336 C59.11326968 100.55449869 59.10548155 97.77337051 59.09765625 94.9921875 C59.09579175 93.06690508 59.094368 91.14162218 59.09336853 89.21633911 C59.08954591 84.1429921 59.07971779 79.06967361 59.06866455 73.99633789 C59.05844495 68.82178127 59.05386973 63.64722005 59.04882812 58.47265625 C59.03809531 48.31509162 59.02102193 38.15754818 59 28 C58.3608667 27.98541748 57.7217334 27.97083496 57.06323242 27.95581055 C54.1041155 27.88030517 51.1460041 27.78399275 48.1875 27.6875 C47.18267578 27.66494141 46.17785156 27.64238281 45.14257812 27.61914062 C29.22839538 27.05625956 16.01610227 20.73117353 2.65625 12.41796875 C-1.92829001 9.97063342 -4.77579345 9.34593765 -9.2578125 12.16796875 Z " fill="#79E6EE" transform="translate(143,45)"/>
<path d="M0 0 C3.0546875 2.01171875 3.0546875 2.01171875 5.875 4.6875 C6.82117188 5.55761719 7.76734375 6.42773438 8.7421875 7.32421875 C11.04289626 10.05083726 11.70990985 11.4999993 12 15 C14.64 14.67 17.28 14.34 20 14 C15.93671765 19.75631667 11.43849042 24.86677303 6.61425781 29.97998047 C2.41492781 34.45987478 -1.36619912 39.14338179 -5.0625 44.05078125 C-6.0215625 45.01564453 -6.0215625 45.01564453 -7 46 C-11 46 -11 46 -12.9296875 44.42578125 C-13.57164062 43.72839844 -14.21359375 43.03101563 -14.875 42.3125 C-15.56980469 41.58675781 -16.26460937 40.86101562 -16.98046875 40.11328125 C-17.64691406 39.41589844 -18.31335938 38.71851563 -19 38 C-22.81537681 34.19580689 -22.81537681 34.19580689 -27.875 32.6875 C-28.926875 32.8421875 -28.926875 32.8421875 -30 33 C-30.28875 33.5775 -30.5775 34.155 -30.875 34.75 C-31.91666667 36.83333333 -32.95833333 38.91666667 -34 41 C-25.83964669 49.35568092 -17.1655226 56.76900368 -8 64 C-2.76763711 59.88090581 1.1987086 55.40262916 5.33984375 50.203125 C8.42626244 46.41072549 11.77250303 42.86900825 15.125 39.3125 C21.64822926 32.38978348 27.94622034 25.33791474 34 18 C35.864757 24.03220635 35.12831718 31.15430689 32.375 36.8125 C30.75291192 40.57279509 30.76505389 42.13050219 32 46 C32.70125 46.86625 33.4025 47.7325 34.125 48.625 C36.95743838 53.72338908 35.83659683 58.38025172 35 64 C36.98 64.99 36.98 64.99 39 66 C38.34 67.98 37.68 69.96 37 72 C35.20866022 72.05391993 33.41686101 72.09275571 31.625 72.125 C30.62726563 72.14820313 29.62953125 72.17140625 28.6015625 72.1953125 C26 72 26 72 24 70 C21.41645782 69.83312552 21.41645782 69.83312552 19 70 C18.938125 71.051875 18.87625 72.10375 18.8125 73.1875 C18.29296875 75.11328125 18.29296875 75.11328125 17 77 C9.20905376 81.1643082 -0.0916226 84.28845894 -9 83 C-11.7082484 81.90163279 -14.19529069 80.62874874 -16.73828125 79.19140625 C-18.85102963 78.07847317 -20.66976378 77.46391431 -23 77 C-23.66 74.69 -24.32 72.38 -25 70 C-27.41645782 69.83312552 -27.41645782 69.83312552 -30 70 C-30.99 70.99 -30.99 70.99 -32 72 C-36.3281261 72.35476443 -38.99271565 72.41970181 -43 70.75 C-43.66 70.1725 -44.32 69.595 -45 69 C-45 67.68 -45 66.36 -45 65 C-44.01 64.505 -44.01 64.505 -43 64 C-42.7941058 61.94399931 -42.68567822 59.87789328 -42.625 57.8125 C-42.30742427 52.20606693 -41.21487245 49.60798385 -38 45 C-37.87273366 41.47003374 -38.4070992 38.1858016 -40 35 C-40.08400529 33.40552536 -40.10727467 31.80759455 -40.09765625 30.2109375 C-40.09282227 28.79941406 -40.09282227 28.79941406 -40.08789062 27.359375 C-40.07951172 26.37453125 -40.07113281 25.3896875 -40.0625 24.375 C-40.05798828 23.38242188 -40.05347656 22.38984375 -40.04882812 21.3671875 C-40.03702145 18.9113984 -40.020554 16.45572896 -40 14 C-37.85423363 13.97314062 -35.70837355 13.95366912 -33.5625 13.9375 C-32.36753906 13.92589844 -31.17257813 13.91429688 -29.94140625 13.90234375 C-27 14 -27 14 -26 15 C-23.57649465 15.38058944 -23.57649465 15.38058944 -21 15 C-19.38201837 13.5128266 -19.38201837 13.5128266 -18.1875 11.4375 C-16.0232511 8.32431119 -13.82392835 5.60683101 -11.0625 3 C-10.15177734 2.13375 -10.15177734 2.13375 -9.22265625 1.25 C-5.93026378 -0.60160912 -3.71870656 -0.49448747 0 0 Z " fill="#021C32" transform="translate(143,79)"/>
<path d="M0 0 C5.16440049 0.32789844 7.80757611 0.85949847 11.6015625 4.48828125 C18.5625 13.18392857 18.5625 13.18392857 18.5625 19.25 C18.376875 20.4875 18.19125 21.725 18 23 C15.69 23.99 13.38 24.98 11 26 C10.83312552 28.41645782 10.83312552 28.41645782 11 31 C11.66 31.66 12.32 32.32 13 33 C16.02202805 32.89286754 18.95898089 32.48107576 21.95703125 32.09375 C26.13336566 31.96508244 28.76576197 33.06497119 32.0625 35.5625 C34.10030308 37.07441842 35.55636474 37.46656611 38 38 C39.19840514 42.39415219 40.00003298 46.01322601 39.9375 50.5625 C40.22851586 53.93246368 40.74210521 54.77998084 43.3671875 57.01953125 C46.1921452 58.79917967 49.0704788 60.40057258 52 62 C55.48023913 64.33408833 56.69563731 65.97821503 58 70 C59.65 70 61.3 70 63 70 C63.52400391 68.63875 63.52400391 68.63875 64.05859375 67.25 C66.40995748 63.31371303 69.13162678 62.01165572 73.0625 60 C77.30531326 57.60042429 79.59138463 56.10326151 81.328125 51.4140625 C81.77574947 47.91248401 81.95014397 44.52618121 82 41 C82.33 40.01 82.66 39.02 83 38 C84.99117408 37.30741771 86.9921136 36.64252365 89 36 C89.46019531 35.49984375 89.92039062 34.9996875 90.39453125 34.484375 C93.47102861 31.63992489 97.97910585 32.06889383 102 32 C104.00097458 32.3274322 106.00133314 32.65876419 108 33 C108.99 32.34 109.98 31.68 111 31 C110.96906827 28.58414426 110.96906827 28.58414426 110 26 C107.03292954 24.14083176 107.03292954 24.14083176 104 23 C102.77921986 15.18361605 104.85693327 10.64756992 109.2734375 4.25 C113.14798563 1.05266515 117.10754647 0.63234991 122 0 C124.94589358 37.84340218 124.94589358 37.84340218 118.70703125 45.1640625 C115.24375931 48.06524976 111.38308232 50.04966896 107.27441406 51.89160156 C103.67857651 53.64397409 100.79652125 56.12760313 97.75 58.6875 C96.61398153 59.59011214 95.47469373 60.48862622 94.33203125 61.3828125 C93.50372803 62.03491699 93.50372803 62.03491699 92.65869141 62.70019531 C88.34927728 66.07719278 83.99831592 69.40061211 79.65283203 72.73095703 C77.90022491 74.07660722 76.15095581 75.42650684 74.40234375 76.77734375 C73.81203369 77.23294678 73.22172363 77.6885498 72.61352539 78.15795898 C71.48325799 79.03046002 70.35350889 79.90363304 69.22436523 80.77758789 C62.39660053 86.04274736 62.39660053 86.04274736 60.04296875 85.7890625 C57.78712115 84.91777911 56.21451273 83.86630558 54.3125 82.375 C53.62003174 81.83794434 52.92756348 81.30088867 52.21411133 80.74755859 C51.48345459 80.17086426 50.75279785 79.59416992 50 79 C48.46261642 77.80420286 46.92485452 76.60889195 45.38671875 75.4140625 C44.63567871 74.82786133 43.88463867 74.24166016 43.11083984 73.63769531 C40.37153501 71.51240537 37.59650394 69.44139969 34.8125 67.375 C28.73855467 62.83404224 22.78410498 58.14904599 16.83496094 53.44677734 C14.91728176 51.93478069 12.99449362 50.42949316 11.0703125 48.92578125 C10.43077637 48.42546387 9.79124023 47.92514648 9.13232422 47.40966797 C7.90290102 46.44813465 6.6727875 45.48748313 5.44189453 44.52783203 C3.1890897 42.76325522 1.02562349 41.02562349 -1 39 C-1.18757906 36.22646923 -1.25560698 33.55459356 -1.23046875 30.78125 C-1.23001053 29.96756958 -1.22955231 29.15388916 -1.2290802 28.31555176 C-1.22605711 26.59397932 -1.2181691 24.87240964 -1.20581055 23.15087891 C-1.18757352 20.51064398 -1.18530072 17.87076004 -1.18554688 15.23046875 C-1.18063094 13.55989279 -1.1748023 11.88931922 -1.16796875 10.21875 C-1.16685593 9.42601685 -1.1657431 8.63328369 -1.16459656 7.81652832 C-1.11606827 2.23213654 -1.11606827 2.23213654 0 0 Z " fill="#021D33" transform="translate(79,121)"/>
<path d="M0 0 C0.99 0.66 1.98 1.32 3 2 C3.40625 4.94140625 3.40625 4.94140625 3.5 8.5625 C3.70921191 13.01052703 4.02619114 16.7748355 5.625 20.9375 C7.14773167 24.95333157 7.15829892 27.78048251 6 32 C5.25169922 32.87978516 5.25169922 32.87978516 4.48828125 33.77734375 C2.47733457 36.78056859 2.49163408 39.16731846 2.3125 42.75 C2.24675781 43.92046875 2.18101563 45.0909375 2.11328125 46.296875 C2.07589844 47.18890625 2.03851563 48.0809375 2 49 C0.515 49.495 0.515 49.495 -1 50 C-0.21869929 52.49552484 -0.21869929 52.49552484 1 55 C4.92296433 56.30765478 7.86002433 56.1971417 12 56 C12.66 55.34 13.32 54.68 14 54 C16.5 53.6875 16.5 53.6875 19 54 C21.1519437 57.22791555 21.20086443 58.28400809 21 62 C21.825 62.0825 22.65 62.165 23.5 62.25 C26.57798287 62.90956776 28.0695097 63.53488916 30.6875 65.0625 C35.73233826 67.67123765 40.43295252 67.9127544 46 67 C48.99306646 65.8766283 51.76644772 64.59069046 54.58984375 63.09375 C57 62 57 62 61 62 C60.95875 61.05125 60.9175 60.1025 60.875 59.125 C61 56 61 56 63 54 C65.5 53.75 65.5 53.75 68 54 C68.66 54.66 69.32 55.32 70 56 C72.66949409 56.24315656 72.66949409 56.24315656 75.625 56.125 C76.62789063 56.10695312 77.63078125 56.08890625 78.6640625 56.0703125 C79.82035156 56.03550781 79.82035156 56.03550781 81 56 C81.33 54.35 81.66 52.7 82 51 C80.515 50.01 80.515 50.01 79 49 C78.77892213 46.2114711 78.71892465 43.65346819 78.8125 40.875 C78.83280273 39.74384766 78.83280273 39.74384766 78.85351562 38.58984375 C78.88890015 36.72625873 78.94270833 34.86304022 79 33 C79.61875 33.165 80.2375 33.33 80.875 33.5 C82.96063386 34.07634644 82.96063386 34.07634644 85 34 C87.39647067 31.94934915 89.35221084 29.68906308 91 27 C91.04385696 23.65404064 91.04385696 23.65404064 90 21 C93 19 93 19 96.125 19.3125 C99 20 99 20 100 21 C100.04092937 23.33297433 100.04241723 25.66705225 100 28 C97.29120665 29.35439668 94.99066732 29.06501451 92 29 C91.773125 29.70125 91.54625 30.4025 91.3125 31.125 C90 34 90 34 87.4375 36.6875 C83.99377476 40.54649799 84.10810396 45.02721773 84 50 C84.763125 50.103125 85.52625 50.20625 86.3125 50.3125 C89.22117209 51.05657891 90.38010972 51.48017068 92 54 C91.875 56.5625 91.875 56.5625 91 59 C87.57299931 61.28466713 87.10114584 61.12192417 83.25 60.5 C78.48978613 59.91626574 75.44131143 60.18721983 71 62 C70.46375 62.53625 69.9275 63.0725 69.375 63.625 C68 65 68 65 65.4140625 65.0859375 C64.61742187 65.05757813 63.82078125 65.02921875 63 65 C63.02964844 66.11117187 63.05929688 67.22234375 63.08984375 68.3671875 C62.88218874 79.90761455 62.88218874 79.90761455 59.46533203 83.70605469 C56.31527374 86.19151244 52.94700753 88.05722848 49.40625 89.921875 C45.80848498 92.11684173 45.02533179 93.03358492 44 97 C43 98 43 98 40.5625 98.1875 C38 98 38 98 36 96 C36 94.68 36 93.36 36 92 C35.46632812 91.73316406 34.93265625 91.46632813 34.3828125 91.19140625 C33.59648437 90.79824219 32.81015625 90.40507812 32 90 C31.02804688 89.55527344 30.05609375 89.11054688 29.0546875 88.65234375 C20.80798598 84.20479833 20.80798598 84.20479833 19.25292969 79.96142578 C18.20693862 75.00947827 18.02294815 70.04859291 18 65 C17.2575 64.896875 16.515 64.79375 15.75 64.6875 C13 64 13 64 10.9921875 62.484375 C7.48155408 59.86860892 3.26555146 60.06738628 -1 60 C-2.134375 60.20625 -3.26875 60.4125 -4.4375 60.625 C-7 61 -7 61 -8.875 59.875 C-10.39463316 57.34227807 -10.50819361 55.9039635 -10 53 C-8.25 51.1875 -8.25 51.1875 -6 50 C-4.68 50 -3.36 50 -2 50 C-2 42.30019467 -4.19681459 38.78073019 -9.28515625 33.06640625 C-11 31 -11 31 -11 29 C-11.94875 29.04125 -12.8975 29.0825 -13.875 29.125 C-17 29 -17 29 -19 27 C-19.36023622 24.19015752 -19.38332602 22.61758081 -17.875 20.1875 C-16 19 -16 19 -13.25 19.125 C-9.19985488 18.96922519 -7.65438066 17.61052192 -4.61328125 15.09375 C-3 14 -3 14 0 14 C0 9.38 0 4.76 0 0 Z " fill="#5AE6E8" transform="translate(99,94)"/>
<path d="M0 0 C0.825 0.391875 1.65 0.78375 2.5 1.1875 C3.1634914 3.11162506 3.82198274 5.03780191 4.44140625 6.9765625 C6.52177632 11.32154206 10.30560725 13.99205048 14.5 16.1875 C17.28876312 16.5920874 19.6623214 16.38320197 22.5 16.1875 C24.5 17.6875 24.5 17.6875 25.5 19.1875 C26.180625 18.341875 26.86125 17.49625 27.5625 16.625 C30.5 14.1875 30.5 14.1875 34.0625 14.1875 C37.26285426 15.11851215 39.07609797 15.95751014 41.5 18.1875 C41.995 16.7025 41.995 16.7025 42.5 15.1875 C48.375 16.0625 48.375 16.0625 49.5 17.1875 C49.6875 20.125 49.6875 20.125 49.5 23.1875 C48.84 23.8475 48.18 24.5075 47.5 25.1875 C46.448125 25.084375 45.39625 24.98125 44.3125 24.875 C38.79824798 25.32698787 36.95614222 28.12237968 33.5 32.1875 C32.88552002 32.8786792 32.27104004 33.5698584 31.63793945 34.28198242 C29.90709397 36.23548019 28.20120266 38.20820071 26.5 40.1875 C25.22916667 41.625 23.95833333 43.0625 22.6875 44.5 C22.17316406 45.098125 21.65882813 45.69625 21.12890625 46.3125 C19.16334911 48.57501181 17.14326691 50.78440683 15.125 53 C11.90782572 56.55092875 8.86311679 60.19219035 5.875 63.9375 C2.39794657 68.24562419 -1.15497142 71.76694559 -5.5 75.1875 C-15.02671889 67.73970494 -23.75615958 59.5255708 -32.5 51.1875 C-30.73770311 47.41230438 -28.73124812 44.88020677 -25.5 42.1875 C-22.29758352 42.5013146 -20.64217002 43.67749032 -18.40625 45.91015625 C-17.85066406 46.44833984 -17.29507813 46.98652344 -16.72265625 47.54101562 C-15.572264 48.68227778 -14.42382979 49.82551695 -13.27734375 50.97070312 C-12.72175781 51.50759766 -12.16617188 52.04449219 -11.59375 52.59765625 C-10.84641602 53.34221069 -10.84641602 53.34221069 -10.08398438 54.10180664 C-8.27016311 55.56440854 -8.27016311 55.56440854 -4.5 55.1875 C-2.50943269 53.21516689 -0.80524517 51.30019243 0.9375 49.125 C1.9940491 47.84834342 3.05136948 46.57232485 4.109375 45.296875 C4.65916016 44.62720703 5.20894531 43.95753906 5.77539062 43.26757812 C8.68870621 39.75378299 11.69043816 36.3173396 14.6875 32.875 C15.25202881 32.22329834 15.81655762 31.57159668 16.39819336 30.90014648 C20.36497996 26.32252004 20.36497996 26.32252004 21.5 25.1875 C19.19 25.1875 16.88 25.1875 14.5 25.1875 C14.190625 24.3625 13.88125 23.5375 13.5625 22.6875 C11.08313316 17.77576854 6.97037965 14.27544292 2.5 11.1875 C-0.95481564 9.77064393 -0.95481564 9.77064393 -4.5 11.1875 C-9.92031682 15.13860384 -14.21676363 19.320235 -17.5 25.1875 C-18.5 26.1875 -18.5 26.1875 -20.9375 26.375 C-23.5 26.1875 -23.5 26.1875 -25.5 24.1875 C-28.04229159 24.01548715 -30.46149996 23.95492383 -33 24 C-33.68964844 24.00064453 -34.37929687 24.00128906 -35.08984375 24.00195312 C-38.92235194 23.98384391 -38.92235194 23.98384391 -42.5 25.1875 C-45.5 25.375 -45.5 25.375 -48.5 25.1875 C-49.16 24.5275 -49.82 23.8675 -50.5 23.1875 C-49.92307692 16.61057692 -49.92307692 16.61057692 -48.5 15.1875 C-46.50041636 15.14669217 -44.49954746 15.14495644 -42.5 15.1875 C-41.84 16.8375 -41.18 18.4875 -40.5 20.1875 C-38.20760939 20.10071237 -35.9160193 19.99254727 -33.625 19.875 C-32.34882812 19.81699219 -31.07265625 19.75898437 -29.7578125 19.69921875 C-28.68273437 19.53035156 -27.60765625 19.36148438 -26.5 19.1875 C-25.84 18.1975 -25.18 17.2075 -24.5 16.1875 C-23.324375 16.27 -22.14875 16.3525 -20.9375 16.4375 C-15.78107711 16.70144852 -13.10742122 13.98913815 -9.3828125 10.71875 C-7.5 9.1875 -7.5 9.1875 -5.5 9.1875 C-5.561875 8.259375 -5.62375 7.33125 -5.6875 6.375 C-5.5 3.1875 -5.5 3.1875 -4.3125 1.25 C-2.5 0.1875 -2.5 0.1875 0 0 Z " fill="#B7F9F8" transform="translate(140.5,68.8125)"/>
<path d="M0 0 C0.66386719 0.20496094 1.32773438 0.40992188 2.01171875 0.62109375 C2.89472656 0.89050781 3.77773437 1.15992188 4.6875 1.4375 C5.55761719 1.70433594 6.42773438 1.97117188 7.32421875 2.24609375 C12.42361152 3.68285697 17.07347118 4.13894867 22.3828125 4.2109375 C23.81120987 4.23898095 25.23959516 4.2676452 26.66796875 4.296875 C28.90413388 4.3382581 31.14006698 4.37517645 33.37646484 4.40136719 C35.54570962 4.42892824 37.71395266 4.47476095 39.8828125 4.5234375 C41.17590332 4.54325684 42.46899414 4.56307617 43.80126953 4.58349609 C47 5 47 5 48.67527008 6.27543068 C50.28175318 8.36679392 50.38060556 9.39582444 50.39440918 12.00961304 C50.40575897 12.82268417 50.41710876 13.63575531 50.42880249 14.47346497 C50.42440659 15.80603584 50.42440659 15.80603584 50.41992188 17.16552734 C50.42839142 18.1040303 50.43686096 19.04253326 50.44558716 20.00947571 C50.46902633 23.11843338 50.46997758 26.22689807 50.46875 29.3359375 C50.475848 31.49443766 50.48354646 33.65293592 50.49182129 35.81143188 C50.50528245 40.33918499 50.50682777 44.8667637 50.50097656 49.39453125 C50.49508263 55.19771757 50.52565231 61.00006666 50.56609344 66.80309105 C50.5919415 71.26236482 50.59485039 75.72143633 50.59120178 80.18077469 C50.59289611 82.32021817 50.60256853 84.45967069 50.62034607 86.59904099 C50.64247538 89.59182484 50.6328637 92.58290568 50.61523438 95.57568359 C50.62849762 96.46001572 50.64176086 97.34434784 50.65542603 98.25547791 C50.59474427 102.68778146 50.46266774 104.42828813 47.58343506 107.9861145 C46.73090149 108.65069672 45.87836792 109.31527893 45 110 C44.35643555 110.54333984 43.71287109 111.08667969 43.04980469 111.64648438 C42.43008789 112.12408203 41.81037109 112.60167969 41.171875 113.09375 C40.10731079 113.91806519 40.10731079 113.91806519 39.02124023 114.7590332 C38.27173096 115.33355225 37.52222168 115.90807129 36.75 116.5 C35.58029663 117.40335083 35.58029663 117.40335083 34.38696289 118.32495117 C28.0154981 123.23942271 21.62334246 128.12749966 15.21972656 133 C14.54780273 133.51175781 13.87587891 134.02351562 13.18359375 134.55078125 C12.29498657 135.22620972 12.29498657 135.22620972 11.38842773 135.9152832 C10.02190496 136.93746573 10.02190496 136.93746573 9 138 C7.33382885 138.04063832 5.66611905 138.042721 4 138 C3 135 3 135 4.4375 131.8125 C5.2109375 130.4203125 5.2109375 130.4203125 6 129 C6.99 129 7.98 129 9 129 C9.226875 128.4225 9.45375 127.845 9.6875 127.25 C11.35981581 124.3831729 13.27219731 122.86288964 16 121 C16.99 121 17.98 121 19 121 C19.165 120.319375 19.33 119.63875 19.5 118.9375 C23.05492108 111.97577956 30.65530545 107.71088781 36.99609375 103.48046875 C39.11404403 102.14995583 39.11404403 102.14995583 40 100 C40.1225329 97.28522685 40.18570817 94.59442994 40.20532227 91.87841797 C40.21522186 91.03931885 40.22512146 90.20021973 40.23532104 89.33569336 C40.26697792 86.55455371 40.29171 83.77339696 40.31640625 80.9921875 C40.33697216 79.06690012 40.35796854 77.14161729 40.37937927 75.21633911 C40.43463741 70.14304282 40.48403017 65.06970553 40.53222656 59.99633789 C40.58241429 54.82174012 40.63811458 49.64720206 40.69335938 44.47265625 C40.8009867 34.31515515 40.9024215 24.15760226 41 14 C40.24894485 14.00425995 39.49788971 14.0085199 38.72407532 14.01290894 C37.73658798 14.01622223 36.74910065 14.01953552 35.73168945 14.02294922 C34.26479424 14.02933914 34.26479424 14.02933914 32.76826477 14.03585815 C29.51326873 13.99369523 26.39899604 13.6501503 23.1875 13.125 C22.14980469 12.96257812 21.11210937 12.80015625 20.04296875 12.6328125 C16.91962062 11.98328439 14.01142231 11.0445213 11 10 C9.33911955 9.63893903 7.67381019 9.29537827 6 9 C6 8.34 6 7.68 6 7 C5.21625 6.87625 4.4325 6.7525 3.625 6.625 C1 6 1 6 -1 4 C-0.625 1.875 -0.625 1.875 0 0 Z " fill="#5CF5F6" transform="translate(161,59)"/>
<path d="M0 0 C0.99 0.66 1.98 1.32 3 2 C3.40625 4.94140625 3.40625 4.94140625 3.5 8.5625 C3.70921191 13.01052703 4.02619114 16.7748355 5.625 20.9375 C7.14773167 24.95333157 7.15829892 27.78048251 6 32 C5.25169922 32.87978516 5.25169922 32.87978516 4.48828125 33.77734375 C2.47733457 36.78056859 2.49163408 39.16731846 2.3125 42.75 C2.24675781 43.92046875 2.18101563 45.0909375 2.11328125 46.296875 C2.07589844 47.18890625 2.03851563 48.0809375 2 49 C0.515 49.495 0.515 49.495 -1 50 C-0.75568004 52.54251602 -0.75568004 52.54251602 1 55 C4.27825654 56.08008783 7.58056494 56.57730231 11 57 C11.33 58.32 11.66 59.64 12 61 C9.31857559 61 6.84382924 60.75985025 4.1875 60.4375 C0.98353446 60.08721222 -1.22626028 60.04113823 -4.4375 60.625 C-7 61 -7 61 -8.875 59.875 C-10.39463316 57.34227807 -10.50819361 55.9039635 -10 53 C-8.25 51.1875 -8.25 51.1875 -6 50 C-4.68 50 -3.36 50 -2 50 C-2 42.30019467 -4.19681459 38.78073019 -9.28515625 33.06640625 C-11 31 -11 31 -11 29 C-11.94875 29.04125 -12.8975 29.0825 -13.875 29.125 C-17 29 -17 29 -19 27 C-19.36023622 24.19015752 -19.38332602 22.61758081 -17.875 20.1875 C-16 19 -16 19 -13.25 19.125 C-9.19985488 18.96922519 -7.65438066 17.61052192 -4.61328125 15.09375 C-3 14 -3 14 0 14 C0 9.38 0 4.76 0 0 Z " fill="#55E6E6" transform="translate(99,94)"/>
<path d="M0 0 C3.7020744 0.61147369 6.80325754 1.63211707 10.1875 3.25 C11.04730469 3.64703125 11.90710938 4.0440625 12.79296875 4.453125 C15.47810689 6.33509793 16.07110738 7.90715084 17 11 C19.3295947 11.50241322 19.3295947 11.50241322 22 11 C22.5775 10.0925 23.155 9.185 23.75 8.25 C26.66528631 4.03903088 30.05799559 2.26160324 35 1 C37.28125 1.40234375 37.28125 1.40234375 39 2 C38.88230394 7.93912406 38.75699389 13.12212493 34.55859375 17.609375 C26.77955158 23.28569339 26.77955158 23.28569339 22 24 C20.66431979 23.67619874 19.33076989 23.34342449 18 23 C17.01 23.33 16.02 23.66 15 24 C12.15234375 22.55859375 12.15234375 22.55859375 8.9375 20.4375 C7.87402344 19.75558594 6.81054688 19.07367188 5.71484375 18.37109375 C1.33293287 14.54401475 0.82873183 10.22102592 0.375 4.625 C0.30023438 3.75101563 0.22546875 2.87703125 0.1484375 1.9765625 C0.09945312 1.32429687 0.05046875 0.67203125 0 0 Z " fill="#022136" transform="translate(120,159)"/>
<path d="M0 0 C0.495 0.99 0.495 0.99 1 2 C0 4 0 4 -2.25 5.3125 C-5.14710378 6.94335577 -5.14710378 6.94335577 -7.625 9.625 C-10 12 -10 12 -13 13 C-14.10213621 15.72633694 -15 18.04144033 -15 21 C-14.01 21.33 -13.02 21.66 -12 22 C-16.32713857 25.50375593 -20.67103834 28.98445383 -25.03759766 32.43896484 C-26.76978326 33.81686914 -28.4853177 35.2127981 -30.19921875 36.61328125 C-36.97518962 41.9338832 -36.97518962 41.9338832 -41.875 42.25 C-45.28419284 40.88632286 -47.47425292 39.67432044 -50 37 C-50.8125 34.25 -50.8125 34.25 -51 32 C-51.66 32 -52.32 32 -53 32 C-53.33 31.34 -53.66 30.68 -54 30 C-54.66 29.67 -55.32 29.34 -56 29 C-55.34 26.36 -54.68 23.72 -54 21 C-46 27 -46 27 -44.046875 28.76171875 C-42.04910684 30.22346535 -42.04910684 30.22346535 -39.55078125 29.92578125 C-36.47852885 28.81073712 -34.64938689 27.33922792 -32.1875 25.1875 C-27.55600567 21.25698859 -22.81687345 17.55539086 -17.9375 13.9375 C-11.85308291 9.41352144 -5.8716002 4.79890401 0 0 Z " fill="#73EBF1" transform="translate(180,176)"/>
<path d="M0 0 C0.825 0.391875 1.65 0.78375 2.5 1.1875 C3.1634914 3.11162506 3.82198274 5.03780191 4.44140625 6.9765625 C6.5237675 11.32570075 10.30707354 13.98318014 14.5 16.1875 C17.43937611 16.72590057 19.49485443 16.56997307 22.5 16.1875 C23.5625 17.9375 23.5625 17.9375 24.5 20.1875 C24.17 21.5075 23.84 22.8275 23.5 24.1875 C20.53 24.5175 17.56 24.8475 14.5 25.1875 C14.190625 24.3625 13.88125 23.5375 13.5625 22.6875 C11.08313316 17.77576854 6.97037965 14.27544292 2.5 11.1875 C-0.95481564 9.77064393 -0.95481564 9.77064393 -4.5 11.1875 C-9.92031682 15.13860384 -14.21676363 19.320235 -17.5 25.1875 C-18.5 26.1875 -18.5 26.1875 -20.9375 26.375 C-23.5 26.1875 -23.5 26.1875 -25.5 24.1875 C-28.04229159 24.01548715 -30.46149996 23.95492383 -33 24 C-33.68964844 24.00064453 -34.37929687 24.00128906 -35.08984375 24.00195312 C-38.92235194 23.98384391 -38.92235194 23.98384391 -42.5 25.1875 C-45.5 25.375 -45.5 25.375 -48.5 25.1875 C-49.16 24.5275 -49.82 23.8675 -50.5 23.1875 C-49.92307692 16.61057692 -49.92307692 16.61057692 -48.5 15.1875 C-46.50041636 15.14669217 -44.49954746 15.14495644 -42.5 15.1875 C-41.84 16.8375 -41.18 18.4875 -40.5 20.1875 C-38.20760939 20.10071237 -35.9160193 19.99254727 -33.625 19.875 C-32.34882812 19.81699219 -31.07265625 19.75898437 -29.7578125 19.69921875 C-28.68273437 19.53035156 -27.60765625 19.36148438 -26.5 19.1875 C-25.84 18.1975 -25.18 17.2075 -24.5 16.1875 C-23.324375 16.27 -22.14875 16.3525 -20.9375 16.4375 C-15.78107711 16.70144852 -13.10742122 13.98913815 -9.3828125 10.71875 C-7.5 9.1875 -7.5 9.1875 -5.5 9.1875 C-5.561875 8.259375 -5.62375 7.33125 -5.6875 6.375 C-5.5 3.1875 -5.5 3.1875 -4.3125 1.25 C-2.5 0.1875 -2.5 0.1875 0 0 Z " fill="#55EFF0" transform="translate(140.5,68.8125)"/>
<path d="M0 0 C0.99 0 1.98 0 3 0 C2.979375 0.66386719 2.95875 1.32773438 2.9375 2.01171875 C3.00409802 4.86294649 3.1857038 7.26023256 4 10 C5.78377496 11.5425992 5.78377496 11.5425992 8 12.5625 C11.74618621 14.48640033 11.74618621 14.48640033 12.99609375 17.015625 C13.71990442 20.78200262 13.60769826 23.0280095 11.546875 26.32421875 C9.2563653 29.00450006 7.17729948 31.41135026 4 33 C3.67 32.34 3.34 31.68 3 31 C2.01 30.67 1.02 30.34 0 30 C-0.33 30.99 -0.66 31.98 -1 33 C-5.03542857 26.88571429 -5.03542857 26.88571429 -4.875 22.875 C-4 20 -4 20 -3.015625 17.80859375 C-1.75408762 14.31995768 -1.30255549 10.84975807 -0.875 7.1875 C-0.78863281 6.49462891 -0.70226562 5.80175781 -0.61328125 5.08789062 C-0.40283919 3.39266294 -0.20058328 1.69642245 0 0 Z " fill="#41CBD0" transform="translate(178,97)"/>
<path d="M0 0 C0.495 0.99 0.495 0.99 1 2 C0 4 0 4 -2.25 5.3125 C-5.14710378 6.94335577 -5.14710378 6.94335577 -7.625 9.625 C-10 12 -10 12 -13 13 C-14.10213621 15.72633694 -15 18.04144033 -15 21 C-14.01 21.33 -13.02 21.66 -12 22 C-13.71619699 23.51482186 -15.44850675 25.0114034 -17.1875 26.5 C-18.15042969 27.3353125 -19.11335937 28.170625 -20.10546875 29.03125 C-23.15249129 31.10371877 -24.41598306 31.4717536 -28 31 C-28 31.66 -28 32.32 -28 33 C-29.32 32.67 -30.64 32.34 -32 32 C-32.6875 30.1875 -32.6875 30.1875 -33 28 C-31.6875 26.25 -31.6875 26.25 -30 25 C-29.34 25 -28.68 25 -28 25 C-27.95230469 24.43410156 -27.90460938 23.86820313 -27.85546875 23.28515625 C-26.60813558 19.95323887 -24.10640914 18.44626687 -21.3125 16.4375 C-20.13729659 15.5647765 -18.96284526 14.69103954 -17.7890625 13.81640625 C-17.17321289 13.36152832 -16.55736328 12.90665039 -15.92285156 12.43798828 C-12.63124698 9.97638963 -9.41202749 7.42343701 -6.1875 4.875 C-4.99356428 3.93480098 -3.79956056 2.99468828 -2.60546875 2.0546875 C-1.74566406 1.37664062 -0.88585937 0.69859375 0 0 Z " fill="#65EDEF" transform="translate(180,176)"/>
<path d="M0 0 C3.2265625 1.42578125 3.2265625 1.42578125 6.625 3.3125 C12.88765946 6.66599341 18.99679837 8.65323046 26 10 C26 10.33 26 10.66 26 11 C18.26529967 10.70590493 12.01842425 9.27323474 5 6 C5.33 6.99 5.66 7.98 6 9 C6 9.66 6 10.32 6 11 C7.65 11.66 9.3 12.32 11 13 C11 13.66 11 14.32 11 15 C11.71027344 15.06058594 12.42054688 15.12117188 13.15234375 15.18359375 C14.07144531 15.26738281 14.99054688 15.35117188 15.9375 15.4375 C17.31228516 15.55931641 17.31228516 15.55931641 18.71484375 15.68359375 C21 16 21 16 22 17 C24.18019479 17.39666227 26.3696463 17.74315237 28.5625 18.0625 C30.35880859 18.32740234 30.35880859 18.32740234 32.19140625 18.59765625 C33.11824219 18.73042969 34.04507813 18.86320312 35 19 C35 19.33 35 19.66 35 20 C20.27175958 20.69400086 6.16260424 16.61704802 -6 8 C-6 7.01 -6 6.02 -6 5 C-7.32 4.67 -8.64 4.34 -10 4 C-7.77844039 -0.44311922 -4.45774635 -0.45872692 0 0 Z " fill="#69EFF2" transform="translate(156,53)"/>
<path d="M0 0 C2.1519437 3.22791555 2.20086443 4.28400809 2 8 C2.825 8.0825 3.65 8.165 4.5 8.25 C7.56325867 8.90641257 9.17399611 9.56611403 11.8125 11.0625 C16.22178085 13.42491934 20.09607834 13.40866014 25 13 C26.38125018 15.76250036 26.19079306 17.94731099 26 21 C24 23 24 23 21.5 23.25 C19 23 19 23 17 21 C17 19.68 17 18.36 17 17 C16.13375 16.731875 15.2675 16.46375 14.375 16.1875 C11 15 11 15 8.21875 13.5625 C4.89833103 11.95064613 1.66123285 10.85893625 -1.875 9.8125 C-3.02742188 9.46832031 -4.17984375 9.12414062 -5.3671875 8.76953125 C-6.23601562 8.51558594 -7.10484375 8.26164063 -8 8 C-8.1484375 3.2265625 -8.1484375 3.2265625 -6.8125 1.1875 C-4.36655047 -0.41501866 -2.86618213 -0.4409511 0 0 Z " fill="#66E7EC" transform="translate(118,148)"/>
<path d="M0 0 C0.99 0.66 1.98 1.32 3 2 C3.46907628 4.70164185 3.74024842 7.15590559 3.875 9.875 C3.93429688 10.59558594 3.99359375 11.31617187 4.0546875 12.05859375 C4.25364543 15.43466109 4.2592168 17.56435292 2.5078125 20.5078125 C2.01023437 21.00023438 1.51265625 21.49265625 1 22 C0.67 21.01 0.34 20.02 0 19 C-3.73487777 19.4979837 -5.81237635 19.87491756 -9 22 C-9.73606499 25.56769552 -9.73606499 25.56769552 -10 29 C-9.01 29.33 -8.02 29.66 -7 30 C-5.41034429 32.21701147 -4.27672514 34.57862473 -3 37 C-3.99 37 -4.98 37 -6 37 C-11 31.65116279 -11 31.65116279 -11 29 C-11.94875 29.04125 -12.8975 29.0825 -13.875 29.125 C-17 29 -17 29 -19 27 C-19.36023622 24.19015752 -19.38332602 22.61758081 -17.875 20.1875 C-16 19 -16 19 -13.25 19.125 C-9.19985488 18.96922519 -7.65438066 17.61052192 -4.61328125 15.09375 C-3 14 -3 14 0 14 C0 9.38 0 4.76 0 0 Z " fill="#5BE5E6" transform="translate(99,94)"/>
<path d="M0 0 C2.25 1.0625 2.25 1.0625 3.5625 3.3125 C4.2406081 6.02493238 4.40897198 8.28049033 4.25 11.0625 C3.59 11.0625 2.93 11.0625 2.25 11.0625 C1.59 13.0425 0.93 15.0225 0.25 17.0625 C-0.74 17.0625 -1.73 17.0625 -2.75 17.0625 C-4.12868281 15.43314759 -5.46274093 13.76500393 -6.75 12.0625 C-7.41 11.7325 -8.07 11.4025 -8.75 11.0625 C-9.125 7.8125 -9.125 7.8125 -8.75 4.0625 C-5.82070165 1.33757131 -4.03581867 0.09172315 0 0 Z " fill="#022436" transform="translate(97.75,111.9375)"/>
<path d="M0 0 C3.78452355 0.52562827 6.26514133 1.26514133 9 4 C9.81640625 6.34375 9.81640625 6.34375 10 9 C8.63671875 11.203125 8.63671875 11.203125 6.6875 13.25 C5.73423828 14.27867188 5.73423828 14.27867188 4.76171875 15.328125 C3 17 3 17 1 18 C-4 11.02768166 -4 11.02768166 -4 7.3125 C-2.87498856 4.71091104 -1.55603708 2.36788251 0 0 Z " fill="#02273A" transform="translate(181,112)"/>
<path d="M0 0 C0 0.66 0 1.32 0 2 C0.66 2.33 1.32 2.66 2 3 C2 2.34 2 1.68 2 1 C4.31 1.33 6.62 1.66 9 2 C9 2.33 9 2.66 9 3 C7.35 3 5.7 3 4 3 C3.99484375 4.134375 3.9896875 5.26875 3.984375 6.4375 C3.5184301 18.38395653 3.5184301 18.38395653 -0.734375 22.91015625 C-8.45689655 28 -8.45689655 28 -12 28 C-11.77734375 26.15234375 -11.77734375 26.15234375 -11 24 C-9.00390625 22.75390625 -9.00390625 22.75390625 -6.5625 21.5625 C-3.19945265 19.5073044 -2.17072443 18.53848794 -0.9609375 14.72265625 C-0.48801588 11.47220242 -0.15087733 8.2803652 0 5 C-5.16906395 5.93416818 -10.20138018 7.20138018 -14 11 C-14.33 9.35 -14.66 7.7 -15 6 C-12.87717331 4.99539469 -10.75166979 3.99644398 -8.625 3 C-7.44164062 2.443125 -6.25828125 1.88625 -5.0390625 1.3125 C-2 0 -2 0 0 0 Z " fill="#5BDAD9" transform="translate(158,156)"/>
<path d="M0 0 C0.78375 0.04125 1.5675 0.0825 2.375 0.125 C2.6225 0.764375 2.87 1.40375 3.125 2.0625 C4.19062433 4.31241541 4.19062433 4.31241541 6.5 4.875 C7.11875 4.9575 7.7375 5.04 8.375 5.125 C4.20833333 10.02696078 4.20833333 10.02696078 0.1875 10.5 C-2.625 10.125 -2.625 10.125 -4.625 9.125 C-4.625 9.785 -4.625 10.445 -4.625 11.125 C-5.945 10.795 -7.265 10.465 -8.625 10.125 C-7.965 10.125 -7.305 10.125 -6.625 10.125 C-6.625 9.465 -6.625 8.805 -6.625 8.125 C-5.965 8.125 -5.305 8.125 -4.625 8.125 C-4.686875 6.701875 -4.686875 6.701875 -4.75 5.25 C-4.59228884 1.307221 -4.03287388 0.19204161 0 0 Z " fill="#4CF9F3" transform="translate(164.625,147.875)"/>
<path d="M0 0 C-1.71428571 7.71428571 -1.71428571 7.71428571 -4 10 C-6.4375 10.1875 -6.4375 10.1875 -9 10 C-9.66 9.34 -10.32 8.68 -11 8 C-11 6.68 -11 5.36 -11 4 C-11.66 4 -12.32 4 -13 4 C-12.67 3.01 -12.34 2.02 -12 1 C-7.95858806 0.36605303 -4.0934693 -0.12404452 0 0 Z " fill="#58F7F3" transform="translate(146,182)"/>
<path d="M0 0 C1.0625 1.75 1.0625 1.75 2 4 C1.67 5.32 1.34 6.64 1 8 C-3.455 8.495 -3.455 8.495 -8 9 C-8.33 6.36 -8.66 3.72 -9 1 C-5.92677456 0.08941469 -3.19902639 -0.08886184 0 0 Z " fill="#55E3E6" transform="translate(163,85)"/>
<path d="M0 0 C5.875 0.875 5.875 0.875 7 2 C7.1875 4.9375 7.1875 4.9375 7 8 C6.34 8.66 5.68 9.32 5 10 C1.375 9.625 1.375 9.625 -2 9 C-2.25 3.375 -2.25 3.375 0 0 Z " fill="#69E4E8" transform="translate(183,84)"/>
<path d="M0 0 C0.66 0 1.32 0 2 0 C2 1.98 2 3.96 2 6 C2.66 6.33 3.32 6.66 4 7 C3.67 8.32 3.34 9.64 3 11 C1.35 11 -0.3 11 -2 11 C-2 11.66 -2 12.32 -2 13 C-3.32 12.67 -4.64 12.34 -6 12 C-6.6875 10.1875 -6.6875 10.1875 -7 8 C-5.6875 6.25 -5.6875 6.25 -4 5 C-3.34 5 -2.68 5 -2 5 C-1.855625 4.360625 -1.71125 3.72125 -1.5625 3.0625 C-1 1 -1 1 0 0 Z " fill="#6BF4F7" transform="translate(154,196)"/>
<path d="M0 0 C2.26706067 2.26706067 1.74409224 8.11189811 2 11 C-1.3 10.01 -4.6 9.02 -8 8 C-8 3 -8 3 -6.8125 1.1875 C-4.41628976 -0.38243085 -2.80951486 -0.29573841 0 0 Z " fill="#3DFBF9" transform="translate(118,148)"/>
<path d="M0 0 C0.66 0 1.32 0 2 0 C2.7728936 3.89309368 3.02220114 7.1389135 2 11 C-1.56344526 14.44038334 -6.80683696 19 -12 19 C-11.77734375 17.16796875 -11.77734375 17.16796875 -11 15 C-9.00390625 13.61328125 -9.00390625 13.61328125 -6.5625 12.3125 C-3.76644515 10.58604708 -2.28371912 9.65170068 -0.9609375 6.61328125 C-0.49463364 4.39659796 -0.15559521 2.25864021 0 0 Z " fill="#66DADF" transform="translate(158,165)"/>
<path d="M0 0 C0.99 0.66 1.98 1.32 3 2 C3.22137393 4.62697064 3.28162025 7.00893964 3.1875 9.625 C3.17396484 10.33140625 3.16042969 11.0378125 3.14648438 11.765625 C3.1111104 13.51074128 3.05730221 15.25546608 3 17 C0.36 17 -2.28 17 -5 17 C-4.01 15.515 -4.01 15.515 -3 14 C-2.01 14 -1.02 14 0 14 C0 9.38 0 4.76 0 0 Z " fill="#6CE9EE" transform="translate(99,94)"/>
<path d="M0 0 C2.80362763 -0.22732116 4.46186517 -0.34081872 6.875 1.1875 C8 3 8 3 7.6875 5.6875 C7.460625 6.450625 7.23375 7.21375 7 8 C5.00045254 8.04254356 2.99958364 8.04080783 1 8 C0 7 0 7 -0.0625 3.4375 C-0.041875 2.303125 -0.02125 1.16875 0 0 Z " fill="#4EECED" transform="translate(183,145)"/>
<path d="M0 0 C1.03930664 0.01353516 1.03930664 0.01353516 2.09960938 0.02734375 C3.79572395 0.05073843 5.49165871 0.08660359 7.1875 0.125 C7.1875 0.455 7.1875 0.785 7.1875 1.125 C3.2275 1.125 -0.7325 1.125 -4.8125 1.125 C-4.8125 6.735 -4.8125 12.345 -4.8125 18.125 C-5.1425 18.125 -5.4725 18.125 -5.8125 18.125 C-5.87308594 17.12597656 -5.93367188 16.12695312 -5.99609375 15.09765625 C-6.07988281 13.80730469 -6.16367188 12.51695313 -6.25 11.1875 C-6.33121094 9.89972656 -6.41242188 8.61195312 -6.49609375 7.28515625 C-6.46169188 4.26476043 -6.46169188 4.26476043 -7.8125 3.125 C-8.1425 7.415 -8.4725 11.705 -8.8125 16.125 C-9.1425 16.125 -9.4725 16.125 -9.8125 16.125 C-9.8125 11.835 -9.8125 7.545 -9.8125 3.125 C-10.8025 2.795 -11.7925 2.465 -12.8125 2.125 C-8.53365394 0.0146565 -4.67385858 -0.11628739 0 0 Z " fill="#0C6069" transform="translate(107.8125,91.875)"/>
<path d="M0 0 C1.98 0 3.96 0 6 0 C6.625 2.875 6.625 2.875 7 6 C6.34 6.66 5.68 7.32 5 8 C2.375 7.625 2.375 7.625 0 7 C-1.125 2.25 -1.125 2.25 0 0 Z " fill="#4DF5F2" transform="translate(137,161)"/>
<path d="M0 0 C3.85025879 0.60355408 6.86101159 1.76772603 10.3125 3.5625 C11.19550781 4.01753906 12.07851562 4.47257813 12.98828125 4.94140625 C13.65214844 5.29074219 14.31601563 5.64007813 15 6 C14.67 7.32 14.34 8.64 14 10 C13.484375 9.319375 12.96875 8.63875 12.4375 7.9375 C10.04585182 5.6150588 10.04585182 5.6150588 6.375 6.0625 C2.74483076 6.6750845 2.74483076 6.6750845 1 10 C0.67 6.7 0.34 3.4 0 0 Z " fill="#022E3C" transform="translate(120,159)"/>
<path d="M0 0 C-0.061875 0.886875 -0.12375 1.77375 -0.1875 2.6875 C0.01951982 6.34485017 0.916074 8.04777151 3 11 C2.01 11 1.02 11 0 11 C-0.33 11.99 -0.66 12.98 -1 14 C-5.03294368 7.88947928 -5.03294368 7.88947928 -4.875 3.625 C-4.58625 2.75875 -4.2975 1.8925 -4 1 C-2 0 -2 0 0 0 Z " fill="#51DEDE" transform="translate(178,116)"/>
<path d="M0 0 C1.98 0 3.96 0 6 0 C6.66 1.65 7.32 3.3 8 5 C12.29 5 16.58 5 21 5 C21.33 5.66 21.66 6.32 22 7 C17.05 7.66 12.1 8.32 7 9 C6.34 6.36 5.68 3.72 5 1 C3.35 1 1.7 1 0 1 C0 0.67 0 0.34 0 0 Z " fill="#5BDEE0" transform="translate(92,84)"/>
<path d="M0 0 C1.64630328 0.14042877 3.29204179 0.28749329 4.9375 0.4375 C6.31228516 0.55931641 6.31228516 0.55931641 7.71484375 0.68359375 C10 1 10 1 11 2 C13.18019479 2.39666227 15.3696463 2.74315237 17.5625 3.0625 C18.76003906 3.23910156 19.95757812 3.41570312 21.19140625 3.59765625 C22.11824219 3.73042969 23.04507813 3.86320312 24 4 C24 4.33 24 4.66 24 5 C15.99003104 5.37743309 8.51526961 5.07378757 1 2 C0.67 1.34 0.34 0.68 0 0 Z " fill="#63DFE2" transform="translate(167,68)"/>
<path d="M0 0 C1.33804688 0.04060547 1.33804688 0.04060547 2.703125 0.08203125 C3.37859375 0.11683594 4.0540625 0.15164062 4.75 0.1875 C4.09 2.1675 3.43 4.1475 2.75 6.1875 C2.09 5.1975 1.43 4.2075 0.75 3.1875 C-2.30359492 3.61358301 -4.92699777 4.042149 -7.75 5.3125 C-10.91176835 6.41911892 -13.03114299 5.9360714 -16.25 5.1875 C-15.92 4.5275 -15.59 3.8675 -15.25 3.1875 C-14.3425 3.249375 -13.435 3.31125 -12.5 3.375 C-9.27414301 3.50338928 -9.27414301 3.50338928 -7.375 1.6875 C-4.71688486 -0.18881657 -3.21245808 -0.12680756 0 0 Z " fill="#5AD2DA" transform="translate(98.25,109.8125)"/>
<path d="M0 0 C2.625 0.375 2.625 0.375 5 1 C5 2.98 5 4.96 5 7 C2.69 7 0.38 7 -2 7 C-2.125 4.625 -2.125 4.625 -2 2 C-1.34 1.34 -0.68 0.68 0 0 Z " fill="#3FFCF7" transform="translate(138,71)"/>
<path d="M0 0 C0.33 0 0.66 0 1 0 C1 1.65 1 3.3 1 5 C2.299375 5.1546875 2.299375 5.1546875 3.625 5.3125 C7.16683123 6.03398414 9.84312042 7.27123261 13 9 C12.01 9.495 12.01 9.495 11 10 C10.67 10.66 10.34 11.32 10 12 C8.51746733 11.38302681 7.03904826 10.75616104 5.5625 10.125 C4.73878906 9.77695313 3.91507812 9.42890625 3.06640625 9.0703125 C1 8 1 8 0 6 C-0.039992 4.00039988 -0.04346799 1.99952758 0 0 Z " fill="#57D8DF" transform="translate(119,151)"/>
<path d="M0 0 C0.99 0.33 1.98 0.66 3 1 C3 4.3 3 7.6 3 11 C1.68 11 0.36 11 -1 11 C-1.02688151 9.35425434 -1.04634123 7.70838587 -1.0625 6.0625 C-1.07410156 5.14597656 -1.08570312 4.22945312 -1.09765625 3.28515625 C-1 1 -1 1 0 0 Z " fill="#56F1F3" transform="translate(98,132)"/>
<path d="M0 0 C0 0.99 0 1.98 0 3 C-0.680625 2.896875 -1.36125 2.79375 -2.0625 2.6875 C-5.74936301 3.07971947 -7.42901716 4.51867211 -10.25390625 6.80859375 C-12.16097146 8.10983511 -13.74702293 8.57109627 -16 9 C-14.33333333 7.33333333 -12.66666667 5.66666667 -11 4 C-10.38125 3.236875 -9.7625 2.47375 -9.125 1.6875 C-6.10682833 -0.70928338 -3.73692212 -0.28745555 0 0 Z " fill="#03374A" transform="translate(143,79)"/>
<path d="M0 0 C1.65 0 3.3 0 5 0 C4.67 2.31 4.34 4.62 4 7 C2.35 7 0.7 7 -1 7 C-0.67 4.69 -0.34 2.38 0 0 Z " fill="#4EF5F1" transform="translate(184,87)"/>
<path d="M0 0 C-0.60220994 6.38342541 -0.60220994 6.38342541 -2.25 8.9375 C-4.58371852 10.35440053 -6.32136078 10.21718696 -9 10 C-9.33 9.34 -9.66 8.68 -10 8 C-8.02 8 -6.04 8 -4 8 C-4 7.01 -4 6.02 -4 5 C-3.34 5 -2.68 5 -2 5 C-2 4.34 -2 3.68 -2 3 C-3.32 2.67 -4.64 2.34 -6 2 C-2.25 0 -2.25 0 0 0 Z " fill="#59EEF0" transform="translate(126,85)"/>
<path d="M0 0 C1.98 0 3.96 0 6 0 C6 1.98 6 3.96 6 6 C4.33388095 6.042721 2.66617115 6.04063832 1 6 C0 5 0 5 -0.0625 2.4375 C-0.041875 1.633125 -0.02125 0.82875 0 0 Z " fill="#40F6F3" transform="translate(82,115)"/>
<path d="M0 0 C2.31 0 4.62 0 7 0 C7 1.65 7 3.3 7 5 C4.69 5 2.38 5 0 5 C0 3.35 0 1.7 0 0 Z " fill="#3BF9FA" transform="translate(156,87)"/>
<path d="M0 0 C0.66 0.33 1.32 0.66 2 1 C0.48328036 5.55015893 -3.16891053 7.50057264 -7 10 C-7.33 8.68 -7.66 7.36 -8 6 C-5.36 4.02 -2.72 2.04 0 0 Z " fill="#5DDCDD" transform="translate(133,78)"/>
<path d="M0 0 C2 1.0625 2 1.0625 4 3 C4.5625 6.4375 4.5625 6.4375 4 10 C1.5 12.4375 1.5 12.4375 -1 14 C-1.33 13.01 -1.66 12.02 -2 11 C-1.01 10.67 -0.02 10.34 1 10 C1.33 7.69 1.66 5.38 2 3 C1.34 3 0.68 3 0 3 C0 2.01 0 1.02 0 0 Z " fill="#9EF5F4" transform="translate(177,84)"/>
<path d="M0 0 C3.3 0.33 6.6 0.66 10 1 C10.33 2.32 10.66 3.64 11 5 C8.20215289 5 6.0209322 4.62804225 3.3125 4 C2.10013672 3.7215625 2.10013672 3.7215625 0.86328125 3.4375 C0.24839844 3.293125 -0.36648437 3.14875 -1 3 C-0.67 2.01 -0.34 1.02 0 0 Z " fill="#50E1DE" transform="translate(100,150)"/>
<path d="M0 0 C1.546875 1.0209375 1.546875 1.0209375 3.125 2.0625 C6.07399705 3.77423963 6.86316837 4.00995139 10.4375 3.75 C11.283125 3.5025 12.12875 3.255 13 3 C13 3.66 13 4.32 13 5 C6.375 6 6.375 6 3 6 C0.8125 4 0.8125 4 -1 2 C-0.67 1.34 -0.34 0.68 0 0 Z " fill="#63DBDB" transform="translate(128,178)"/>
<path d="M0 0 C2.31 0.33 4.62 0.66 7 1 C7 1.33 7 1.66 7 2 C5.35 2 3.7 2 2 2 C1.67 4.64 1.34 7.28 1 10 C0.67 9.34 0.34 8.68 0 8 C-0.66 8 -1.32 8 -2 8 C-2.33 6.02 -2.66 4.04 -3 2 C-2.01 2 -1.02 2 0 2 C0 1.34 0 0.68 0 0 Z " fill="#48CFCD" transform="translate(160,157)"/>
<path d="M0 0 C3.14191424 1.53604696 6.08596738 3.05731159 9 5 C8.67 5.99 8.34 6.98 8 8 C5.0280615 6.87548273 2.66559313 5.77706209 0 4 C0 2.68 0 1.36 0 0 Z " fill="#57D2D9" transform="translate(181,107)"/>
<path d="M0 0 C0.99 0.33 1.98 0.66 3 1 C1.07158542 2.53376229 -0.86621794 4.0517182 -2.8125 5.5625 C-3.35970703 6.00013672 -3.90691406 6.43777344 -4.47070312 6.88867188 C-5.9221958 8.00588139 -7.45810571 9.01128867 -9 10 C-9.99 9.67 -10.98 9.34 -12 9 C-11.071875 8.87625 -11.071875 8.87625 -10.125 8.75 C-7.84696322 8.22658559 -7.84696322 8.22658559 -7.125 6.1875 C-5.46339594 2.95660322 -3.1288457 1.72405784 0 0 Z " fill="#033547" transform="translate(150,197)"/>
<path d="M0 0 C2.96404505 2.80804268 5.44499019 5.18315774 7 9 C3.62537285 8.45276317 1.91765 7.9451 -1 6 C-0.67 4.02 -0.34 2.04 0 0 Z " fill="#7EEAEF" transform="translate(121,171)"/>
<path d="M0 0 C1.66611905 -0.042721 3.33382885 -0.04063832 5 0 C6.66342837 1.66342837 6.36048097 3.7825709 6.5625 6.0625 C6.64628906 6.98160156 6.73007813 7.90070313 6.81640625 8.84765625 C6.87699219 9.55792969 6.93757813 10.26820313 7 11 C5.02 10.34 3.04 9.68 1 9 C1.7115625 8.38125 1.7115625 8.38125 2.4375 7.75 C4.16266518 5.817815 4.56584875 4.51807725 5 2 C3.35 2 1.7 2 0 2 C0 1.34 0 0.68 0 0 Z " fill="#4DF2F2" transform="translate(113,148)"/>
<path d="M0 0 C1.65 0 3.3 0 5 0 C5.2475 0.639375 5.495 1.27875 5.75 1.9375 C6.81562433 4.18741541 6.81562433 4.18741541 9.125 4.75 C9.74375 4.8325 10.3625 4.915 11 5 C9.35 6.32 7.7 7.64 6 9 C5.34 6.69 4.68 4.38 4 2 C1.83125748 2.50603992 0.00032373 2.99983813 -2 4 C-1.34 2.68 -0.68 1.36 0 0 Z " fill="#61EBED" transform="translate(162,148)"/>
<path d="M0 0 C0.66 0 1.32 0 2 0 C2.71614583 1.72526042 3.43229167 3.45052083 4.1484375 5.17578125 C5.06806692 7.26533932 5.06806692 7.26533932 7 10 C5.68 11.32 4.36 12.64 3 14 C1.69991107 11.39982215 1.58125482 8.83436745 1.25390625 5.9765625 C0.99101058 3.93002084 0.57778733 1.98098513 0 0 Z " fill="#08434B" transform="translate(103,112)"/>
<path d="M0 0 C0.99 0 1.98 0 3 0 C3 3.3 3 6.6 3 10 C2.01 10 1.02 10 0 10 C0 6.7 0 3.4 0 0 Z " fill="#56E6E7" transform="translate(178,97)"/>
<path d="M0 0 C1.04750157 3.33152755 1.00335257 6.0975502 0.6875 9.5625 C0.60886719 10.51253906 0.53023437 11.46257812 0.44921875 12.44140625 C0 15 0 15 -2 18 C-1.96519531 16.84371094 -1.96519531 16.84371094 -1.9296875 15.6640625 C-1.91164062 14.66117188 -1.89359375 13.65828125 -1.875 12.625 C-1.85179687 11.62726563 -1.82859375 10.62953125 -1.8046875 9.6015625 C-1.72783152 6.83737827 -1.72783152 6.83737827 -4 5 C-2.68 3.35 -1.36 1.7 0 0 Z " fill="#012E34" transform="translate(177,97)"/>
<path d="M0 0 C-0.33 0.66 -0.66 1.32 -1 2 C-1.99 1.67 -2.98 1.34 -4 1 C-6.96404505 3.80804268 -9.44499019 6.18315774 -11 10 C-11.375 6.75 -11.375 6.75 -11 3 C-7.28640985 -0.45450246 -4.88283164 -1.72335234 0 0 Z " fill="#084454" transform="translate(100,113)"/>
<path d="M0 0 C2.6875 0.3125 2.6875 0.3125 5 1 C3.68 1.33 2.36 1.66 1 2 C1.33 6.29 1.66 10.58 2 15 C1.34 14.67 0.68 14.34 0 14 C0 10.7 0 7.4 0 4 C-0.99 3.67 -1.98 3.34 -3 3 C-1.8125 1.4375 -1.8125 1.4375 0 0 Z " fill="#0C636F" transform="translate(181,93)"/>
<path d="M0 0 C0.66 0.33 1.32 0.66 2 1 C-0.11393565 4.17090348 -0.79971661 4.3998583 -4 6 C-5.37086915 7.29470975 -6.71340837 8.62150897 -8 10 C-8.99 9.67 -9.98 9.34 -11 9 C-7.37 6.03 -3.74 3.06 0 0 Z " fill="#043549" transform="translate(190,180)"/>
<path d="M0 0 C4.66154042 1.49835228 5.86610751 4.88463591 8 9 C7.01 9 6.02 9 5 9 C0 3.76744186 0 3.76744186 0 0 Z " fill="#76CFDA" transform="translate(88,122)"/>
<path d="M0 0 C1.98 0 3.96 0 6 0 C6.33 1.65 6.66 3.3 7 5 C4.03 4.505 4.03 4.505 1 4 C0.67 2.68 0.34 1.36 0 0 Z " fill="#42FBF7" transform="translate(191,115)"/>
<path d="M0 0 C3.82097239 0.53069061 6.06171403 1.49701566 9 4 C7.02 4 5.04 4 3 4 C2.67 5.98 2.34 7.96 2 10 C1.67 10 1.34 10 1 10 C0.67 6.7 0.34 3.4 0 0 Z " fill="#064C5B" transform="translate(120,159)"/>
<path d="M0 0 C1.53760842 3.07521683 0.36599236 5.34675118 -0.4375 8.625 C-0.72496094 9.81351563 -1.01242188 11.00203125 -1.30859375 12.2265625 C-1.53675781 13.14179688 -1.76492187 14.05703125 -2 15 C-2.33 15 -2.66 15 -3 15 C-3.08142927 13.2507786 -3.13938541 11.50045458 -3.1875 9.75 C-3.22230469 8.77546875 -3.25710937 7.8009375 -3.29296875 6.796875 C-2.96075202 3.62531258 -2.11327721 2.32959693 0 0 Z " fill="#054650" transform="translate(104,126)"/>
<path d="M0 0 C3.9492568 0.55105909 7.34920174 1.38935371 11 3 C11 3.99 11 4.98 11 6 C7.27566618 4.7874262 3.62197194 3.49140021 0 2 C0 1.34 0 0.68 0 0 Z " fill="#71EAED" transform="translate(156,63)"/>
<path d="M0 0 C1.5 1.3125 1.5 1.3125 3 3 C3 3.99 3 4.98 3 6 C5.64 5.67 8.28 5.34 11 5 C10.01 6.485 10.01 6.485 9 8 C6.69 7.67 4.38 7.34 2 7 C1.34 4.69 0.68 2.38 0 0 Z " fill="#094A5A" transform="translate(152,88)"/>
<path d="M0 0 C-2.95664519 1.4783226 -5.74229737 1.06032783 -9 1 C-9.33 1.99 -9.66 2.98 -10 4 C-12.0625 4.6875 -12.0625 4.6875 -14 5 C-11.87441395 1.81162093 -10.74359312 0.21688133 -7 -0.875 C-4.34701374 -0.98554109 -2.48716289 -0.860941 0 0 Z " fill="#033C49" transform="translate(181,154)"/>
<path d="M0 0 C4 4 4 4 4.171875 6.796875 C4.03265625 7.77140625 3.8934375 8.7459375 3.75 9.75 C3.62109375 10.73484375 3.4921875 11.7196875 3.359375 12.734375 C3.24078125 13.48203125 3.1221875 14.2296875 3 15 C2.67 15 2.34 15 2 15 C1.34 10.05 0.68 5.1 0 0 Z " fill="#11595F" transform="translate(175,127)"/>
<path d="M0 0 C0.721875 0.144375 1.44375 0.28875 2.1875 0.4375 C-0.47916667 3.10416667 -3.14583333 5.77083333 -5.8125 8.4375 C-6.4725 8.1075 -7.1325 7.7775 -7.8125 7.4375 C-3.69871444 0.57535558 -3.69871444 0.57535558 0 0 Z " fill="#0E4452" transform="translate(193.8125,122.5625)"/>
<path d="M0 0 C0.66 0 1.32 0 2 0 C1.67 3.3 1.34 6.6 1 10 C0.34 10 -0.32 10 -1 10 C-0.67 6.7 -0.34 3.4 0 0 Z " fill="#6CE9F3" transform="translate(158,165)"/>
<path d="M0 0 C0.33 0 0.66 0 1 0 C0.39174965 4.34464536 -0.26167392 8.67551867 -1 13 C-1.33 13 -1.66 13 -2 13 C-2.05416188 11.39620659 -2.09286638 9.79188594 -2.125 8.1875 C-2.14820313 7.29417969 -2.17140625 6.40085938 -2.1953125 5.48046875 C-2 3 -2 3 0 0 Z " fill="#013B4B" transform="translate(185,131)"/>
<path d="M0 0 C2.0625 0.4375 2.0625 0.4375 4 1 C4 2.98 4 4.96 4 7 C3.690625 6.360625 3.38125 5.72125 3.0625 5.0625 C2.1654837 3.06389179 2.1654837 3.06389179 1 2 C0.67 3.32 0.34 4.64 0 6 C-0.33 6 -0.66 6 -1 6 C-1.042721 4.33388095 -1.04063832 2.66617115 -1 1 C-0.67 0.67 -0.34 0.34 0 0 Z " fill="#001626" transform="translate(172,103)"/>
<path d="M0 0 C2.97 1.98 2.97 1.98 6 4 C2.25 6 2.25 6 0 6 C-1.125 2.25 -1.125 2.25 0 0 Z " fill="#7BE3E8" transform="translate(97,175)"/>
<path d="M0 0 C1.32 0.33 2.64 0.66 4 1 C1.69 2.65 -0.62 4.3 -3 6 C-3.66 5.34 -4.32 4.68 -5 4 C-4.34 3.34 -3.68 2.68 -3 2 C-2.01 2 -1.02 2 0 2 C0 1.34 0 0.68 0 0 Z " fill="#06344C" transform="translate(179,174)"/>
<path d="M0 0 C-0.1875 1.875 -0.1875 1.875 -1 4 C-3.5625 5.25 -3.5625 5.25 -6 6 C-3.84615385 0 -3.84615385 0 0 0 Z " fill="#05364A" transform="translate(150,163)"/>
<path d="M0 0 C-0.33 1.32 -0.66 2.64 -1 4 C-2.98 4.33 -4.96 4.66 -7 5 C-6 2 -6 2 -4.0625 0.8125 C-2 0 -2 0 0 0 Z " fill="#62E4E4" transform="translate(158,156)"/>
<path d="M0 0 C1.32 0 2.64 0 4 0 C4 0.66 4 1.32 4 2 C4.66 2 5.32 2 6 2 C5.67 2.99 5.34 3.98 5 5 C4.34 4.67 3.68 4.34 3 4 C2.34 4.66 1.68 5.32 1 6 C0.67 4.02 0.34 2.04 0 0 Z " fill="#4FE1DF" transform="translate(95,129)"/>
<path d="M0 0 C1.625 1.625 1.625 1.625 3 4 C2.1875 7.25 2.1875 7.25 1 10 C-0.85064319 6.87703962 -1.29356154 4.62059232 -1 1 C-0.67 0.67 -0.34 0.34 0 0 Z " fill="#5DE4E8" transform="translate(102,112)"/>
<path d="M0 0 C0.5625 1.9375 0.5625 1.9375 1 4 C0 5 0 5 -3.0625 5.0625 C-4.5165625 5.0315625 -4.5165625 5.0315625 -6 5 C-3.9927092 1.9890638 -3.16115776 1.36983503 0 0 Z " fill="#61F0F1" transform="translate(100,106)"/>
<path d="M0 0 C1.4540625 0.0309375 1.4540625 0.0309375 2.9375 0.0625 C1.6175 0.3925 0.2975 0.7225 -1.0625 1.0625 C-1.3925 3.0425 -1.7225 5.0225 -2.0625 7.0625 C-2.7225 7.0625 -3.3825 7.0625 -4.0625 7.0625 C-4.10504356 5.06295254 -4.10330783 3.06208364 -4.0625 1.0625 C-3.0625 0.0625 -3.0625 0.0625 0 0 Z " fill="#69F9F6" transform="translate(185.0625,85.9375)"/>
<path d="M0 0 C1.98 0 3.96 0 6 0 C5.34 1.32 4.68 2.64 4 4 C2.68 4 1.36 4 0 4 C0 2.68 0 1.36 0 0 Z " fill="#92FCFA" transform="translate(164,89)"/>
<path d="M0 0 C4.75 0.75 4.75 0.75 7 3 C6.01 4.485 6.01 4.485 5 6 C3.35 4.02 1.7 2.04 0 0 Z " fill="#6AF3ED" transform="translate(148,83)"/>
<path d="M0 0 C0.66 0.33 1.32 0.66 2 1 C0.90716423 2.03295436 -0.19970579 3.05107835 -1.3125 4.0625 C-1.92738281 4.63097656 -2.54226562 5.19945312 -3.17578125 5.78515625 C-3.77777344 6.18605469 -4.37976563 6.58695313 -5 7 C-5.99 6.67 -6.98 6.34 -8 6 C-5.36 4.02 -2.72 2.04 0 0 Z " fill="#083C4C" transform="translate(168,197)"/>
<path d="M0 0 C1.65 0 3.3 0 5 0 C4.37240135 2.92879371 3.41377341 5.36095629 2 8 C1.34 5.36 0.68 2.72 0 0 Z " fill="#71F0F2" transform="translate(141,182)"/>
<path d="M0 0 C0.33 0 0.66 0 1 0 C1 1.98 1 3.96 1 6 C1.99 6.33 2.98 6.66 4 7 C2.25 7.75 2.25 7.75 0 8 C-2.25 6.0625 -2.25 6.0625 -4 4 C-2.68 4 -1.36 4 0 4 C0 2.68 0 1.36 0 0 Z " fill="#44BEC6" transform="translate(182,138)"/>
<path d="M0 0 C0.66 0.33 1.32 0.66 2 1 C2 1.66 2 2.32 2 3 C3.32 3.33 4.64 3.66 6 4 C6 4.99 6 5.98 6 7 C3.69 5.35 1.38 3.7 -1 2 C-0.67 1.34 -0.34 0.68 0 0 Z " fill="#07364C" transform="translate(109,182)"/>
<path d="M0 0 C0.33 0.66 0.66 1.32 1 2 C0.01 3.32 -0.98 4.64 -2 6 C-3.32 5.67 -4.64 5.34 -6 5 C-4.02 3.35 -2.04 1.7 0 0 Z " fill="#5FE0E7" transform="translate(198,162)"/>
<path d="M0 0 C0.66 0.33 1.32 0.66 2 1 C2.625 3.0625 2.625 3.0625 3 5 C1.68 5.33 0.36 5.66 -1 6 C-1.042721 4.33388095 -1.04063832 2.66617115 -1 1 C-0.67 0.67 -0.34 0.34 0 0 Z " fill="#51FCF5" transform="translate(92,146)"/>
<path d="M0 0 C3.45925163 1.2491742 6.14693203 2.67527795 9 5 C7.35 5 5.7 5 4 5 C3.67 4.01 3.34 3.02 3 2 C2.01 2 1.02 2 0 2 C0 1.34 0 0.68 0 0 Z " fill="#73D6DD" transform="translate(146,48)"/>
</svg>
